<?xml version="1.0" standalone="no"?>
<!DOCTYPE svg PUBLIC "-//W3C//DTD SVG 20010904//EN"
 "http://www.w3.org/TR/2001/REC-SVG-20010904/DTD/svg10.dtd">
<svg version="1.0" xmlns="http://www.w3.org/2000/svg"
 width="730.000000pt" height="732.000000pt" viewBox="0 0 730.000000 732.000000"
 preserveAspectRatio="xMidYMid meet">

<g transform="translate(0.000000,732.000000) scale(0.100000,-0.100000)"
fill="#000000" stroke="none">
<path d="M0 3660 l0 -3660 3650 0 3650 0 0 3660 0 3660 -3650 0 -3650 0 0
-3660z m7258 3 l-3 -3618 -3605 0 -3605 0 -3 3605 c-1 1983 0 3611 3 3618 3 9
735 12 3610 12 l3605 0 -2 -3617z"/>
<path d="M6861 7238 c-71 -20 -131 -71 -169 -143 -37 -70 -38 -178 -2 -249 33
-64 100 -122 163 -141 64 -19 100 -19 168 1 72 21 149 98 174 174 69 208 -126
418 -334 358z m194 -52 c136 -80 165 -261 60 -383 -124 -145 -362 -86 -415
102 -34 121 36 256 156 301 57 21 144 12 199 -20z"/>
<path d="M80 6525 l0 -715 750 0 750 0 0 715 0 715 -750 0 -750 0 0 -715z
m1450 0 l0 -665 -700 0 -700 0 0 665 0 665 700 0 700 0 0 -665z"/>
<path d="M535 7058 c-3 -7 -4 -236 -3 -508 l3 -495 260 0 260 0 0 225 0 225
-237 3 -238 2 0 255 0 255 243 2 c234 3 242 4 242 23 0 19 -8 20 -263 23 -205
2 -264 0 -267 -10z m475 -778 l0 -180 -215 0 -215 0 0 180 0 180 215 0 215 0
0 -180z"/>
<path d="M2000 6440 l0 -750 1600 0 1600 0 0 750 0 750 -1600 0 -1600 0 0
-750z m3150 0 l0 -700 -1550 0 -1550 0 0 700 0 700 1550 0 1550 0 0 -700z"/>
<path d="M3825 6948 c-3 -7 -4 -215 -3 -463 3 -442 3 -450 23 -450 20 0 20 7
20 460 0 430 -1 460 -18 463 -9 2 -19 -2 -22 -10z"/>
<path d="M2175 6928 c-3 -7 -4 -220 -3 -473 l3 -460 250 0 c243 0 250 1 250
20 0 19 -8 20 -227 23 l-228 2 0 425 0 425 253 2 c244 3 252 4 252 23 0 19 -8
20 -273 23 -213 2 -274 0 -277 -10z"/>
<path d="M3954 6927 c-6 -15 184 -858 196 -871 5 -5 15 -6 22 -3 19 7 204 865
190 879 -27 27 -40 -5 -90 -239 -78 -357 -110 -499 -111 -491 -3 25 -163 724
-167 730 -8 13 -34 9 -40 -5z"/>
<path d="M3235 6918 c-3 -7 -4 -213 -3 -458 3 -437 3 -445 23 -445 20 0 20 7
20 455 0 425 -1 455 -18 458 -9 2 -19 -2 -22 -10z"/>
<path d="M4765 6918 c-3 -7 -4 -213 -3 -458 3 -437 3 -445 23 -445 20 0 20 7
20 455 0 425 -1 455 -18 458 -9 2 -19 -2 -22 -10z"/>
<path d="M4945 6918 c-3 -7 -4 -213 -3 -458 3 -437 3 -445 23 -445 20 0 20 7
20 455 0 425 -1 455 -18 458 -9 2 -19 -2 -22 -10z"/>
<path d="M2774 6505 c-11 -28 10 -36 87 -33 66 3 74 5 74 23 0 18 -8 20 -78
23 -64 2 -78 0 -83 -13z"/>
<path d="M3434 6495 c-11 -28 10 -36 87 -33 66 3 74 5 74 23 0 18 -8 20 -78
23 -64 2 -78 0 -83 -13z"/>
<path d="M4454 6495 c-11 -27 10 -36 72 -33 51 3 59 6 59 23 0 18 -8 20 -63
23 -50 2 -63 0 -68 -13z"/>
<path d="M1630 4170 l0 -890 455 0 455 0 0 890 0 890 -455 0 -455 0 0 -890z
m860 0 l0 -840 -405 0 -405 0 0 840 0 840 405 0 405 0 0 -840z"/>
<path d="M1807 4644 c-13 -13 -8 -479 5 -492 9 -9 74 -12 230 -12 l218 0 0
-175 0 -175 -217 -2 c-210 -3 -218 -4 -218 -23 0 -19 7 -20 240 -20 l240 0 0
220 0 220 -227 3 -228 2 0 205 0 205 233 2 c224 3 232 4 232 23 0 19 -8 20
-251 23 -138 1 -253 -1 -257 -4z"/>
<path d="M3160 4170 l0 -890 455 0 455 0 0 890 0 890 -455 0 -455 0 0 -890z
m860 0 l0 -840 -405 0 -405 0 0 840 0 840 405 0 405 0 0 -840z"/>
<path d="M3365 4698 c-3 -7 -4 -254 -3 -548 3 -527 3 -535 23 -535 19 0 20 8
25 249 l5 249 204 -242 c195 -231 231 -263 238 -221 2 8 -91 126 -207 262
-115 137 -210 252 -210 256 0 5 99 118 220 253 121 134 219 251 217 259 -7 40
-44 7 -247 -219 l-215 -239 -5 241 c-5 220 -7 242 -23 245 -9 2 -19 -2 -22
-10z"/>
<path d="M4690 4170 l0 -890 455 0 455 0 0 890 0 890 -455 0 -455 0 0 -890z
m860 0 l0 -840 -405 0 -405 0 0 840 0 840 405 0 405 0 0 -840z"/>
<path d="M4860 4200 l0 -570 275 0 275 0 0 570 0 570 -275 0 -275 0 0 -570z
m500 0 l0 -520 -225 0 -225 0 0 520 0 520 225 0 225 0 0 -520z"/>
<path d="M6042 2985 c-330 -93 -406 -510 -130 -717 205 -155 516 -62 609 180
64 168 12 352 -131 466 -90 72 -238 102 -348 71z m199 -51 c118 -35 208 -125
243 -243 54 -183 -50 -371 -238 -434 -226 -76 -475 125 -453 365 20 221 240
374 448 312z"/>
<path d="M4262 2975 c-330 -93 -406 -510 -130 -717 205 -155 516 -62 609 180
64 168 12 352 -131 466 -90 72 -238 102 -348 71z m199 -51 c118 -35 208 -125
243 -243 54 -183 -50 -371 -238 -434 -226 -76 -475 125 -453 365 20 221 240
374 448 312z"/>
<path d="M2482 2965 c-330 -93 -406 -510 -130 -717 205 -155 516 -62 609 180
64 168 12 352 -131 466 -90 72 -238 102 -348 71z m199 -51 c118 -35 208 -125
243 -243 54 -183 -50 -371 -238 -434 -226 -76 -475 125 -453 365 20 221 240
374 448 312z"/>
<path d="M3372 2965 c-330 -93 -406 -510 -130 -717 205 -155 516 -62 609 180
64 168 12 352 -131 466 -90 72 -238 102 -348 71z m199 -51 c118 -35 208 -125
243 -243 54 -183 -50 -371 -238 -434 -226 -76 -475 125 -453 365 20 221 240
374 448 312z"/>
<path d="M5142 2965 c-330 -93 -406 -510 -130 -717 205 -155 516 -62 609 180
64 168 12 352 -131 466 -90 72 -238 102 -348 71z m199 -51 c118 -35 208 -125
243 -243 54 -183 -50 -371 -238 -434 -226 -76 -475 125 -453 365 20 221 240
374 448 312z"/>
<path d="M652 2945 c-330 -93 -406 -510 -130 -717 205 -155 516 -62 609 180
64 168 12 352 -131 466 -90 72 -238 102 -348 71z m199 -51 c189 -56 302 -261
242 -440 -50 -149 -189 -254 -338 -254 -199 0 -370 186 -352 382 20 221 240
374 448 312z"/>
<path d="M1582 2945 c-330 -93 -406 -510 -130 -717 205 -155 516 -62 609 180
64 168 12 352 -131 466 -90 72 -238 102 -348 71z m199 -51 c189 -56 302 -261
242 -440 -50 -149 -189 -254 -338 -254 -199 0 -370 186 -352 382 20 221 240
374 448 312z"/>
<path d="M6042 1995 c-330 -93 -406 -510 -130 -717 205 -155 516 -62 609 180
64 168 12 352 -131 466 -90 72 -238 102 -348 71z m199 -51 c189 -56 302 -261
242 -440 -63 -189 -262 -297 -439 -237 -119 39 -205 128 -239 248 -75 255 179
505 436 429z"/>
<path d="M4262 1985 c-330 -93 -406 -510 -130 -717 205 -155 516 -62 609 180
64 168 12 352 -131 466 -90 72 -238 102 -348 71z m199 -51 c189 -56 302 -261
242 -440 -63 -189 -262 -297 -439 -237 -119 39 -205 128 -239 248 -75 255 179
505 436 429z"/>
<path d="M2482 1975 c-330 -93 -406 -510 -130 -717 205 -155 516 -62 609 180
64 168 12 352 -131 466 -90 72 -238 102 -348 71z m199 -51 c189 -56 302 -261
242 -440 -63 -189 -262 -297 -439 -237 -119 39 -205 128 -239 248 -75 255 179
505 436 429z"/>
<path d="M3372 1975 c-330 -93 -406 -510 -130 -717 205 -155 516 -62 609 180
64 168 12 352 -131 466 -90 72 -238 102 -348 71z m199 -51 c189 -56 302 -261
242 -440 -63 -189 -262 -297 -439 -237 -119 39 -205 128 -239 248 -75 255 179
505 436 429z"/>
<path d="M5142 1975 c-330 -93 -406 -510 -130 -717 205 -155 516 -62 609 180
64 168 12 352 -131 466 -90 72 -238 102 -348 71z m199 -51 c189 -56 302 -261
242 -440 -63 -189 -262 -297 -439 -237 -119 39 -205 128 -239 248 -75 255 179
505 436 429z"/>
<path d="M652 1955 c-330 -93 -406 -510 -130 -717 205 -155 516 -62 609 180
64 168 12 352 -131 466 -90 72 -238 102 -348 71z m199 -51 c189 -56 302 -261
242 -440 -63 -189 -262 -297 -439 -237 -119 39 -205 128 -239 248 -75 255 179
505 436 429z"/>
<path d="M1582 1955 c-330 -93 -406 -510 -130 -717 205 -155 516 -62 609 180
64 168 12 352 -131 466 -90 72 -238 102 -348 71z m199 -51 c189 -56 302 -261
242 -440 -63 -189 -262 -297 -439 -237 -119 39 -205 128 -239 248 -75 255 179
505 436 429z"/>
<path d="M4272 1025 c-330 -93 -406 -510 -130 -717 205 -155 516 -62 609 180
64 168 12 352 -131 466 -90 72 -238 102 -348 71z m199 -51 c189 -56 302 -261
242 -440 -63 -189 -262 -297 -439 -237 -119 39 -205 128 -239 248 -75 255 179
505 436 429z"/>
<path d="M2492 1015 c-330 -93 -406 -510 -130 -717 205 -155 516 -62 609 180
64 168 12 352 -131 466 -90 72 -238 102 -348 71z m199 -51 c189 -56 302 -261
242 -440 -63 -189 -262 -297 -439 -237 -119 39 -205 128 -239 248 -75 255 179
505 436 429z"/>
<path d="M3382 1015 c-330 -93 -406 -510 -130 -717 205 -155 516 -62 609 180
64 168 12 352 -131 466 -90 72 -238 102 -348 71z m199 -51 c189 -56 302 -261
242 -440 -63 -189 -262 -297 -439 -237 -119 39 -205 128 -239 248 -75 255 179
505 436 429z"/>
<path d="M662 995 c-330 -93 -406 -510 -130 -717 205 -155 516 -62 609 180 64
168 12 352 -131 466 -90 72 -238 102 -348 71z m199 -51 c189 -56 302 -261 242
-440 -63 -189 -262 -297 -439 -237 -119 39 -205 128 -239 248 -75 255 179 505
436 429z"/>
<path d="M1592 995 c-330 -93 -406 -510 -130 -717 205 -155 516 -62 609 180
64 168 12 352 -131 466 -90 72 -238 102 -348 71z m199 -51 c189 -56 302 -261
242 -440 -63 -189 -262 -297 -439 -237 -119 39 -205 128 -239 248 -75 255 179
505 436 429z"/>
</g>
</svg>
